<svg xmlns="http://www.w3.org/2000/svg" viewBox="0 0 553.5 164.3" enable-background="new 0 0 553.5 164.3"><style type="text/css">.st0{fill:#FFFFFF;}</style><path d="M16.8 34c-.2-1.7-1.6-1.9-3-1.9h-1.3c-.9 0-1.8-.1-2.2-.6C9.2 38.4 6.5 42.7 2.2 45c-.3.2-.6.2-1 .2-.6 0-1.2-.2-1.2-.7 0 0 .2-.2 1.3-1.4 3.4-3.4 6.4-8.6 6.4-13.1-.2-.9-.2-1.7-.2-2.3 0-1.7.8-2.9 1.9-2.9 2.1 0 1.3 4.5 5.5 4.5.6 0 1.7-.2 2.7-.2.7 0 1.7.7 1.7 3.8 0 5.4 1.6 8.3 4.8 8.3 1.4 0 2.9-.9 3.1-.9.7 0 1.3.9 1.3 1.4 0 .7-2.8 1.6-4.6 1.6-3.3 0-6.4-2-7.1-9.3zM34.5 37.4c1.3 2.1 3.3 3.9 5.9 3.9.3 0 .6 0 .9-.1.7-.1 1.3-.3 1.7-.5.5-.2.6-.3.8-.3.6 0 1.5.8 1.5 1.3 0 .4-1.4 1.1-3.5 1.4-.5.1-1 .1-1.5.1-3.3 0-6.1-1.5-8-3.9-2.2 2-4.8 3.2-5.3 3.2-1.1 0-1.2-.5-1.2-1.2 0-.2 0-.5.3-.6.8-.4 2-.9 2.8-1.4.8-.5 1.6-1.2 2.3-1.9-.6-1.4-1-3-1-4.7 0-3.4 1.3-6.7 5.1-6.7 1.5 0 3.2 1.4 3.2 3.3 0 3.3-1.8 6-4 8.1zm-1.1-2.2c1.2-1.3 2.5-2.9 2.5-4.9 0-.9-.4-1.5-1.3-1.5-1.4 0-1.6 2-1.6 3.9 0 .7.2 1.6.4 2.5zM59.9 27.6c4.1 0 9.4 6.2 9.4 10.4 0 1.5-1.5 7.5-5.2 7.5-1.2 0-1.8-.6-1.8-1.7 0-.3 0-.7.3-1 1-1 1.8-.9 2.5-1.6.9-.9 1.5-2.5 1.5-3.9 0-2.8-3.7-6.3-6.5-6.3-5.3 0-7 5.9-13.6 10.1-1.3.8-2.3 1.3-2.7 1.3-.2 0-.6 0-.9-.3-.2-.2-.3-.5-.3-1.1 0-.2.2-.4.3-.5.4-.2 1.2-.6 2.2-1.3 6.7-4.4 9.1-11.6 14.8-11.6zM78.4 16.5c-.2-.9-3.5-1.1-3.5-2.1 0-2.5 3.6-2.4 4-3.8.7-2.6.2-5.5 2-5.5.7 0 .8 2.3 1.4 4.7.4 0 3 .2 3.4.2 5.1 0 6.9-.2 12.8-.4 0 0 12-.7 18.4-1.4 5.8-.7 16.5-2.3 17-2.3.9 0 1.8.4 1.8 1.2 0 .4 0 .9-.4 1-5 1.2-12.7 2.1-17 2.9-3.1.6-16.1 3.1-23.5 3.8-5.1.5-8.4 1.1-12.3 1.4-.8.3-.9 2.5-.9 4.1 0 13 3 21.1 11 21.1 2.6 0 3.8-1 4.2-1 .6 0 1.3.9 1.3 1.4 0 .5-2.6 1.6-6 1.6-14.3 0-12-17.8-13.7-26.9zM127.9 41.2c1.9 0 3.1-.9 3.4-.9.6 0 1.3.9 1.3 1.4 0 .6-3.1 1.6-5.2 1.6-4.9 0-6.7-6.4-9.5-6.4-2.1 0-3.4 5.9-7.5 5.9-4.8 0-5-5.2-6.6-5.2-.3 0-1.4 1.3-1.9 1.7-2.2 2-4.6 3.2-5.2 3.2-1.1 0-1.2-.5-1.2-1.2 0-.2 0-.5.3-.6.8-.3 1.5-.8 2.2-1.3.9-.6 1.7-1.4 2.4-2.1 4.1-4.1 4-4.4 4.2-4.6 1.1-2.3 3.7-8.1 8-8.1 3.4 0 4.9 3.9 4.9 7.3v.6c0 .5.1.9.9.9 4.6 0 3.9 7.8 9.5 7.8zM106.7 36c0 1.2 1.4 3.4 3.2 3.4 2.8 0 4.8-4.4 4.8-8 0-2.3-.7-4.2-2.4-4.2-4.1-.1-5.6 7.3-5.6 8.8zM194 40.4c.6 0 1.3.9 1.3 1.4 0 .5-2.3 1.5-5 1.5-7.1 0-5.5-8-6.2-8.8-.2-.3-.5-.4-.9-.4-1.1 0-2.1.5-3.4.5-2.7 0-4.2-1.5-5.1-1.5-1.8 0-2 9.9-8.8 9.9-5.9 0-7.8-8.5-9.2-8.5-2.2 0-3.1 9.6-9.2 9.6-5 0-6.8-8.2-7.8-8.2-.6 0-1.8 1.8-3.5 3.3-2.2 2.1-4.5 3.3-5.1 3.3-1.1 0-1.2-.5-1.2-1.2 0-.2 0-.5.3-.6 1.6-.7 3.3-2.1 4.6-3.4 2-2.1 3.6-6.5 5.8-6.5 2.1 0 3.7 10.7 6.7 10.7 4.2 0 5.9-10.9 9.1-10.9 3.1 0 5.4 9.7 9.5 9.7 5.5 0 5.2-12.4 7.9-12.4 2.3 0 3 4.1 6.3 4.1 1.5 0 2.5-.7 4-.7 5 0 .2 9.8 6.7 9.8 1.7.1 2.9-.7 3.2-.7zM225.1 41.2c1.9 0 3.1-.9 3.4-.9.6 0 1.3.9 1.3 1.4 0 .6-3.1 1.6-5.2 1.6-4.9 0-6.7-6.4-9.5-6.4-2.1 0-3.4 5.9-7.5 5.9-4.8 0-5-5.2-6.6-5.2-.3 0-1.4 1.3-1.9 1.7-2.2 2-4.6 3.2-5.2 3.2-1.1 0-1.2-.5-1.2-1.2 0-.2 0-.5.3-.6.8-.3 1.5-.8 2.2-1.3.9-.6 1.7-1.4 2.4-2.1 4.1-4.1 4-4.4 4.2-4.6 1.1-2.3 3.7-8.1 8-8.1 3.4 0 4.9 3.9 4.9 7.3v.6c0 .5.1.9.9.9 4.5 0 3.9 7.8 9.5 7.8zM203.8 36c0 1.2 1.4 3.4 3.2 3.4 2.8 0 4.8-4.4 4.8-8 0-2.3-.7-4.2-2.4-4.2-4.1-.1-5.6 7.3-5.6 8.8zM245.9 38.2c3.3 0 7.1-8.9 9.5-8.9 4.3 0 4.5 12 11.3 12 2.6 0 3.8-1 4.2-1 .6 0 1.3.9 1.3 1.4 0 .5-2.6 1.6-6 1.6-8.4 0-9.1-9.6-11-9.6-1.3 0-5.5 7.4-9.1 7.4-3.9 0-6.1-5.4-7.4-5.4-1.5 0-2.6 1.4-5 3.5-2.2 2-4.6 3.2-5.2 3.2-1.1 0-1.2-.5-1.2-1.2 0-.2 0-.5.3-.6 1.6-.7 3.3-2 4.5-3.4 2.1-2.3 4.3-5.7 6.5-5.7 2.6.3 3.9 6.7 7.3 6.7zM310 40.4c.6 0 1.3.9 1.3 1.4 0 .5-2.6 1.6-6 1.6-5.8 0-8.3-4.3-9-5.5-4 2.7-7.5 4.7-12.4 4.7-8.5 0-9.5-11.3-9.5-20 0-2.8.1-7.1.3-8.2-.5 0-.9-.4-1.6-.4-2 0-4.4.6-6.5.6-2.1 0-3.7-.6-3.7-2.5 0-3.2 10.4-3 13-3.9.8-.8 1.5-1.1 2.4-1.1 1.7 0 2.6.7 4.2.7 3.2 0 7.1-1.1 38-1.1h.9c1 0 2.1.1 2.1.9 0 .3-.7 1-1 1.1-17.4.6-28.9 1.8-36.9 3.2-8.1 1.5-8.2 1.6-8.2 13.2 0 7.4.9 15.2 7.7 15.2 3.5 0 7.1-2 10.3-4.6-.1-.5-.2-1.5-.2-2.1 0-3.7 1.8-7.7 5.4-7.7 1.6 0 2.6 1.2 2.6 2.8 0 2.6-3.4 6.1-4.6 7.4l-.2.2c0 .7 2.6 5 7.4 5 2.6 0 3.8-.9 4.2-.9zm-12.4-7c0 .2 0 .5.1.6 1.5-1.4 2.8-3.6 2.8-4.6 0-.5-.2-.7-.6-.7-1.4 0-2.3 3-2.3 4.7zM61 157.7l-1.5-62.8-21.3 18.5-21.3-13.6-1.9 59.4H2.9l6.5-88.9 28.5 26.1 35-27.6 1.5 87.8-13.4 1.1zM155.6 156.6l-5.7-26.7-23 .4-11.5 27.4h-9.5L141.3 67l27.1 89-12.8.6zM196.6 72.3l12.9-2.9 22.9 70 5.3-70.2 10 1.3-4.7 85.6-17.6 1.3-17.1-51.2-1.8 52.3-11.8-1.8 1.9-84.4zM298.3 156.3l-11.8 2.7 3.2-90.9 9.8-1.1-1.2 89.3zM359.1 69.3c4.1.5 7.7 1.8 11 3.9 3.2 2.1 6 5 8.4 8.7 2.3 3.8 4.1 8.5 5.3 14.1 1.2 5.7 1.7 12.3 1.5 20-.3 7.7-1.3 14.1-3 19.4-1.8 5.2-3.9 9.5-6.5 12.7-2.6 3.2-5.4 5.5-8.4 6.9-3 1.4-6 2.1-8.7 2.1-2.8 0-5.7-.7-8.9-2-3.1-1.3-6-3.7-8.5-7.2s-4.6-8.2-6.1-14.2-2.1-13.8-1.6-23.4c.1-4.8.5-9.1 1.3-12.8.8-3.7 1.8-7 3-9.8 1.2-2.8 2.6-5.2 4.1-7.2 1.5-2 3.1-3.7 4.7-5.1 3.6-3.1 7.8-5.2 12.4-6.1zM441.7 154.7c-3-1.2-5.8-2.8-8.5-4.9-2.7-2.1-5.2-4.7-7.3-7.9-2.1-3.2-3.8-7.1-5.1-11.7-1.3-4.6-1.8-9.9-1.6-16.1.3-6.9 1.1-12.9 2.6-17.9 1.5-5 3.4-9.2 5.7-12.6 2.3-3.4 4.9-6.2 7.9-8.2 2.9-2.1 5.8-3.7 8.8-4.9 7-2.7 14.9-3.4 23.7-2.2v10.6c-11.9-.8-20.9 1.8-27.1 7.8-6.2 6-9.2 15.1-9.2 27.2-.1 4.1.3 7.6 1.2 10.6.9 3 2.1 5.6 3.7 7.8s3.3 4 5.3 5.4c2 1.4 4 2.6 6.1 3.4 4.9 2.1 10.5 3.1 16.7 2.9l.5 14.1c-8.9.6-16.7-.6-23.4-3.4zM540.7 156.6l-5.7-26.7-23 .4-11.5 27.4H491L526.4 67l27.1 89-12.8.6z" class="st0"/></svg>